# xmcd CD database file
#
# Track frame offsets:
#	150
#	26090
#	50615
#	81843
#	106555
#	120668
#	150458
#	176077
#	201056
#	219401
#	236079
#	252639
#
# Disc length: 3605 seconds
#
# Revision: 0
# Processed by: cddbd v1.5.2PL0 Copyright (c) Steve Scherf et al.
# Submitted via: CDex 1.70beta2
#
DISCID=9f0e130c
DTITLE=Various Artist - ropeadone records
DYEAR=2003
DGENRE=Jazz
TTITLE0=The Miles Hit -Caine and McBride and Thompson
TTITLE1=Space Odyssey - Belgrave
TTITLE2=Mali - Hunter
TTITLE3=Walk On Gilded Splinters - Dr.John
TTITLE4=Dr. Yes - Bernstein
TTITLE5=Miles Hit - Rob Life Mix (Caine and Mc Bride and Thompson)
TTITLE6=Obsession -Flores
TTITLE7=Snakeskin - Bullfrog
TTITLE8=French Quarter - Kibler and Benjamin and Spurling and Ballard
TTITLE9=Joyful Sounds - Lee
TTITLE10=Morning Train - Traditional
TTITLE11=Just the Two of Us - MacDonald and Salter and Withers
EXTD=YEAR: 2003
EXTT0=
EXTT1=
EXTT2=
EXTT3=
EXTT4=
EXTT5=
EXTT6=
EXTT7=
EXTT8=
EXTT9=
EXTT10=
EXTT11=
PLAYORDER=
